<mxfile host="app.diagrams.net" agent="Mozilla/5.0 (Macintosh; Intel Mac OS X 10_15_7) AppleWebKit/537.36 (KHTML, like Gecko) Chrome/129.0.0.0 Safari/537.36" version="24.8.0">
  <diagram name="PÃ¡gina-1" id="Shy19o994jKM5tEOcR9w">
    <mxGraphModel dx="1418" dy="710" grid="1" gridSize="10" guides="1" tooltips="1" connect="1" arrows="1" fold="1" page="1" pageScale="1" pageWidth="827" pageHeight="1169" math="0" shadow="0">
      <root>
        <mxCell id="0" />
        <mxCell id="1" parent="0" />
        <mxCell id="Yt6nb3nTDEPJ7XApa7xt-3" value="" style="edgeStyle=orthogonalEdgeStyle;rounded=0;orthogonalLoop=1;jettySize=auto;html=1;entryX=0.019;entryY=0.045;entryDx=0;entryDy=0;exitX=1.01;exitY=0.634;exitDx=0;exitDy=0;exitPerimeter=0;entryPerimeter=0;" parent="1" source="Yt6nb3nTDEPJ7XApa7xt-10" target="7qr-zKuk6jMWVqNpnoos-5" edge="1">
          <mxGeometry relative="1" as="geometry">
            <Array as="points" />
            <mxPoint as="offset" />
          </mxGeometry>
        </mxCell>
        <mxCell id="Yt6nb3nTDEPJ7XApa7xt-4" value="door" style="edgeLabel;html=1;align=center;verticalAlign=middle;resizable=0;points=[];" parent="Yt6nb3nTDEPJ7XApa7xt-3" vertex="1" connectable="0">
          <mxGeometry x="0.2103" relative="1" as="geometry">
            <mxPoint x="-47" y="30" as="offset" />
          </mxGeometry>
        </mxCell>
        <mxCell id="Yt6nb3nTDEPJ7XApa7xt-5" value="1" style="edgeLabel;html=1;align=center;verticalAlign=middle;resizable=0;points=[];" parent="Yt6nb3nTDEPJ7XApa7xt-3" vertex="1" connectable="0">
          <mxGeometry x="0.5516" relative="1" as="geometry">
            <mxPoint x="13" as="offset" />
          </mxGeometry>
        </mxCell>
        <mxCell id="7qr-zKuk6jMWVqNpnoos-1" value="Remote" style="swimlane;fontStyle=1;align=center;verticalAlign=top;childLayout=stackLayout;horizontal=1;startSize=26;horizontalStack=0;resizeParent=1;resizeParentMax=0;resizeLast=0;collapsible=1;marginBottom=0;whiteSpace=wrap;html=1;" parent="1" vertex="1">
          <mxGeometry x="60" y="200" width="160" height="88" as="geometry" />
        </mxCell>
        <mxCell id="Yt6nb3nTDEPJ7XApa7xt-10" value="door: DogDoor" style="text;strokeColor=none;fillColor=none;align=left;verticalAlign=top;spacingLeft=4;spacingRight=4;overflow=hidden;rotatable=0;points=[[0,0.5],[1,0.5]];portConstraint=eastwest;whiteSpace=wrap;html=1;" parent="7qr-zKuk6jMWVqNpnoos-1" vertex="1">
          <mxGeometry y="26" width="160" height="26" as="geometry" />
        </mxCell>
        <mxCell id="7qr-zKuk6jMWVqNpnoos-3" value="" style="line;strokeWidth=1;fillColor=none;align=left;verticalAlign=middle;spacingTop=-1;spacingLeft=3;spacingRight=3;rotatable=0;labelPosition=right;points=[];portConstraint=eastwest;strokeColor=inherit;" parent="7qr-zKuk6jMWVqNpnoos-1" vertex="1">
          <mxGeometry y="52" width="160" height="10" as="geometry" />
        </mxCell>
        <mxCell id="7qr-zKuk6jMWVqNpnoos-4" value="pressButton()" style="text;strokeColor=none;fillColor=none;align=left;verticalAlign=top;spacingLeft=4;spacingRight=4;overflow=hidden;rotatable=0;points=[[0,0.5],[1,0.5]];portConstraint=eastwest;whiteSpace=wrap;html=1;" parent="7qr-zKuk6jMWVqNpnoos-1" vertex="1">
          <mxGeometry y="62" width="160" height="26" as="geometry" />
        </mxCell>
        <mxCell id="7qr-zKuk6jMWVqNpnoos-5" value="DogDoor" style="swimlane;fontStyle=1;align=center;verticalAlign=top;childLayout=stackLayout;horizontal=1;startSize=26;horizontalStack=0;resizeParent=1;resizeParentMax=0;resizeLast=0;collapsible=1;marginBottom=0;whiteSpace=wrap;html=1;" parent="1" vertex="1">
          <mxGeometry x="347" y="200" width="160" height="220" as="geometry" />
        </mxCell>
        <mxCell id="7qr-zKuk6jMWVqNpnoos-6" value="open: boolean" style="text;strokeColor=none;fillColor=none;align=left;verticalAlign=top;spacingLeft=4;spacingRight=4;overflow=hidden;rotatable=0;points=[[0,0.5],[1,0.5]];portConstraint=eastwest;whiteSpace=wrap;html=1;" parent="7qr-zKuk6jMWVqNpnoos-5" vertex="1">
          <mxGeometry y="26" width="160" height="26" as="geometry" />
        </mxCell>
        <mxCell id="Yt6nb3nTDEPJ7XApa7xt-11" value="allowedBarks: Bark[*]" style="text;strokeColor=none;fillColor=none;align=left;verticalAlign=top;spacingLeft=4;spacingRight=4;overflow=hidden;rotatable=0;points=[[0,0.5],[1,0.5]];portConstraint=eastwest;whiteSpace=wrap;html=1;" parent="7qr-zKuk6jMWVqNpnoos-5" vertex="1">
          <mxGeometry y="52" width="160" height="26" as="geometry" />
        </mxCell>
        <mxCell id="7qr-zKuk6jMWVqNpnoos-7" value="" style="line;strokeWidth=1;fillColor=none;align=left;verticalAlign=middle;spacingTop=-1;spacingLeft=3;spacingRight=3;rotatable=0;labelPosition=right;points=[];portConstraint=eastwest;strokeColor=inherit;" parent="7qr-zKuk6jMWVqNpnoos-5" vertex="1">
          <mxGeometry y="78" width="160" height="8" as="geometry" />
        </mxCell>
        <mxCell id="7qr-zKuk6jMWVqNpnoos-8" value="open()" style="text;strokeColor=none;fillColor=none;align=left;verticalAlign=top;spacingLeft=4;spacingRight=4;overflow=hidden;rotatable=0;points=[[0,0.5],[1,0.5]];portConstraint=eastwest;whiteSpace=wrap;html=1;" parent="7qr-zKuk6jMWVqNpnoos-5" vertex="1">
          <mxGeometry y="86" width="160" height="26" as="geometry" />
        </mxCell>
        <mxCell id="7qr-zKuk6jMWVqNpnoos-9" value="close()" style="text;strokeColor=none;fillColor=none;align=left;verticalAlign=top;spacingLeft=4;spacingRight=4;overflow=hidden;rotatable=0;points=[[0,0.5],[1,0.5]];portConstraint=eastwest;whiteSpace=wrap;html=1;" parent="7qr-zKuk6jMWVqNpnoos-5" vertex="1">
          <mxGeometry y="112" width="160" height="26" as="geometry" />
        </mxCell>
        <mxCell id="7qr-zKuk6jMWVqNpnoos-10" value="isOpen(): boolean" style="text;strokeColor=none;fillColor=none;align=left;verticalAlign=top;spacingLeft=4;spacingRight=4;overflow=hidden;rotatable=0;points=[[0,0.5],[1,0.5]];portConstraint=eastwest;whiteSpace=wrap;html=1;" parent="7qr-zKuk6jMWVqNpnoos-5" vertex="1">
          <mxGeometry y="138" width="160" height="26" as="geometry" />
        </mxCell>
        <mxCell id="7qr-zKuk6jMWVqNpnoos-17" value="addAllowedBark(Bark)" style="text;strokeColor=none;fillColor=none;align=left;verticalAlign=top;spacingLeft=4;spacingRight=4;overflow=hidden;rotatable=0;points=[[0,0.5],[1,0.5]];portConstraint=eastwest;whiteSpace=wrap;html=1;" parent="7qr-zKuk6jMWVqNpnoos-5" vertex="1">
          <mxGeometry y="164" width="160" height="26" as="geometry" />
        </mxCell>
        <mxCell id="7qr-zKuk6jMWVqNpnoos-21" value="getAllowedBarks(): Bark[*]" style="text;strokeColor=none;fillColor=none;align=left;verticalAlign=top;spacingLeft=4;spacingRight=4;overflow=hidden;rotatable=0;points=[[0,0.5],[1,0.5]];portConstraint=eastwest;whiteSpace=wrap;html=1;" parent="7qr-zKuk6jMWVqNpnoos-5" vertex="1">
          <mxGeometry y="190" width="160" height="30" as="geometry" />
        </mxCell>
        <mxCell id="Yt6nb3nTDEPJ7XApa7xt-13" value="" style="edgeStyle=orthogonalEdgeStyle;rounded=0;orthogonalLoop=1;jettySize=auto;html=1;entryX=0.987;entryY=0.069;entryDx=0;entryDy=0;entryPerimeter=0;" parent="1" source="7qr-zKuk6jMWVqNpnoos-11" target="7qr-zKuk6jMWVqNpnoos-5" edge="1">
          <mxGeometry relative="1" as="geometry" />
        </mxCell>
        <mxCell id="Yt6nb3nTDEPJ7XApa7xt-14" value="door" style="edgeLabel;html=1;align=center;verticalAlign=middle;resizable=0;points=[];" parent="Yt6nb3nTDEPJ7XApa7xt-13" vertex="1" connectable="0">
          <mxGeometry x="-0.4748" y="1" relative="1" as="geometry">
            <mxPoint x="15" y="-2" as="offset" />
          </mxGeometry>
        </mxCell>
        <mxCell id="Yt6nb3nTDEPJ7XApa7xt-15" value="1" style="edgeLabel;html=1;align=center;verticalAlign=middle;resizable=0;points=[];" parent="Yt6nb3nTDEPJ7XApa7xt-13" vertex="1" connectable="0">
          <mxGeometry x="0.7637" relative="1" as="geometry">
            <mxPoint as="offset" />
          </mxGeometry>
        </mxCell>
        <mxCell id="7qr-zKuk6jMWVqNpnoos-11" value="BarkRecognizer" style="swimlane;fontStyle=1;align=center;verticalAlign=top;childLayout=stackLayout;horizontal=1;startSize=26;horizontalStack=0;resizeParent=1;resizeParentMax=0;resizeLast=0;collapsible=1;marginBottom=0;whiteSpace=wrap;html=1;" parent="1" vertex="1">
          <mxGeometry x="610" y="202" width="160" height="86" as="geometry" />
        </mxCell>
        <mxCell id="7qr-zKuk6jMWVqNpnoos-12" value="door: DogDoor" style="text;strokeColor=none;fillColor=none;align=left;verticalAlign=top;spacingLeft=4;spacingRight=4;overflow=hidden;rotatable=0;points=[[0,0.5],[1,0.5]];portConstraint=eastwest;whiteSpace=wrap;html=1;" parent="7qr-zKuk6jMWVqNpnoos-11" vertex="1">
          <mxGeometry y="26" width="160" height="26" as="geometry" />
        </mxCell>
        <mxCell id="7qr-zKuk6jMWVqNpnoos-13" value="" style="line;strokeWidth=1;fillColor=none;align=left;verticalAlign=middle;spacingTop=-1;spacingLeft=3;spacingRight=3;rotatable=0;labelPosition=right;points=[];portConstraint=eastwest;strokeColor=inherit;" parent="7qr-zKuk6jMWVqNpnoos-11" vertex="1">
          <mxGeometry y="52" width="160" height="8" as="geometry" />
        </mxCell>
        <mxCell id="7qr-zKuk6jMWVqNpnoos-14" value="recognize(Bark)" style="text;strokeColor=none;fillColor=none;align=left;verticalAlign=top;spacingLeft=4;spacingRight=4;overflow=hidden;rotatable=0;points=[[0,0.5],[1,0.5]];portConstraint=eastwest;whiteSpace=wrap;html=1;" parent="7qr-zKuk6jMWVqNpnoos-11" vertex="1">
          <mxGeometry y="60" width="160" height="26" as="geometry" />
        </mxCell>
        <mxCell id="7qr-zKuk6jMWVqNpnoos-22" value="Bark" style="swimlane;fontStyle=1;align=center;verticalAlign=top;childLayout=stackLayout;horizontal=1;startSize=26;horizontalStack=0;resizeParent=1;resizeParentMax=0;resizeLast=0;collapsible=1;marginBottom=0;whiteSpace=wrap;html=1;" parent="1" vertex="1">
          <mxGeometry x="60" y="330" width="160" height="112" as="geometry" />
        </mxCell>
        <mxCell id="7qr-zKuk6jMWVqNpnoos-23" value="sound: string" style="text;strokeColor=none;fillColor=none;align=left;verticalAlign=top;spacingLeft=4;spacingRight=4;overflow=hidden;rotatable=0;points=[[0,0.5],[1,0.5]];portConstraint=eastwest;whiteSpace=wrap;html=1;" parent="7qr-zKuk6jMWVqNpnoos-22" vertex="1">
          <mxGeometry y="26" width="160" height="26" as="geometry" />
        </mxCell>
        <mxCell id="7qr-zKuk6jMWVqNpnoos-24" value="" style="line;strokeWidth=1;fillColor=none;align=left;verticalAlign=middle;spacingTop=-1;spacingLeft=3;spacingRight=3;rotatable=0;labelPosition=right;points=[];portConstraint=eastwest;strokeColor=inherit;" parent="7qr-zKuk6jMWVqNpnoos-22" vertex="1">
          <mxGeometry y="52" width="160" height="8" as="geometry" />
        </mxCell>
        <mxCell id="7qr-zKuk6jMWVqNpnoos-25" value="getSound(): string" style="text;strokeColor=none;fillColor=none;align=left;verticalAlign=top;spacingLeft=4;spacingRight=4;overflow=hidden;rotatable=0;points=[[0,0.5],[1,0.5]];portConstraint=eastwest;whiteSpace=wrap;html=1;" parent="7qr-zKuk6jMWVqNpnoos-22" vertex="1">
          <mxGeometry y="60" width="160" height="26" as="geometry" />
        </mxCell>
        <mxCell id="7qr-zKuk6jMWVqNpnoos-26" value="equals(Bark): boolean" style="text;strokeColor=none;fillColor=none;align=left;verticalAlign=top;spacingLeft=4;spacingRight=4;overflow=hidden;rotatable=0;points=[[0,0.5],[1,0.5]];portConstraint=eastwest;whiteSpace=wrap;html=1;" parent="7qr-zKuk6jMWVqNpnoos-22" vertex="1">
          <mxGeometry y="86" width="160" height="26" as="geometry" />
        </mxCell>
        <mxCell id="Yt6nb3nTDEPJ7XApa7xt-7" value="" style="endArrow=block;endFill=1;html=1;edgeStyle=orthogonalEdgeStyle;align=left;verticalAlign=top;rounded=0;exitX=0;exitY=0.5;exitDx=0;exitDy=0;entryX=0.996;entryY=0.099;entryDx=0;entryDy=0;entryPerimeter=0;" parent="1" source="Yt6nb3nTDEPJ7XApa7xt-11" target="7qr-zKuk6jMWVqNpnoos-22" edge="1">
          <mxGeometry x="-1" relative="1" as="geometry">
            <mxPoint x="170" y="300" as="sourcePoint" />
            <mxPoint x="330" y="300" as="targetPoint" />
            <Array as="points">
              <mxPoint x="330" y="265" />
              <mxPoint x="330" y="341" />
            </Array>
          </mxGeometry>
        </mxCell>
        <mxCell id="Yt6nb3nTDEPJ7XApa7xt-9" value="allowedBarks" style="edgeLabel;html=1;align=center;verticalAlign=middle;resizable=0;points=[];" parent="Yt6nb3nTDEPJ7XApa7xt-7" vertex="1" connectable="0">
          <mxGeometry x="0.1569" relative="1" as="geometry">
            <mxPoint x="-15" y="-1" as="offset" />
          </mxGeometry>
        </mxCell>
        <mxCell id="Yt6nb3nTDEPJ7XApa7xt-12" value="*" style="edgeLabel;html=1;align=center;verticalAlign=middle;resizable=0;points=[];" parent="Yt6nb3nTDEPJ7XApa7xt-7" vertex="1" connectable="0">
          <mxGeometry x="0.7633" relative="1" as="geometry">
            <mxPoint x="-11" as="offset" />
          </mxGeometry>
        </mxCell>
      </root>
    </mxGraphModel>
  </diagram>
</mxfile>
